<svg
                xmlns="http://www.w3.org/2000/svg"
                width="20"
                viewBox="0 0 0.6 0.6"
                fill="none"
              >
                <path
                  d="M0.075 0.225h0.45M0.175 0.375h0.05m-0.07 0.1h0.29c0.028 0 0.042 0 0.053 -0.005a0.05 0.05 0 0 0 0.022 -0.022C0.525 0.437 0.525 0.423 0.525 0.395V0.205c0 -0.028 0 -0.042 -0.005 -0.053a0.05 0.05 0 0 0 -0.022 -0.022C0.487 0.125 0.473 0.125 0.445 0.125H0.155c-0.028 0 -0.042 0 -0.053 0.005a0.05 0.05 0 0 0 -0.022 0.022C0.075 0.163 0.075 0.177 0.075 0.205v0.19c0 0.028 0 0.042 0.005 0.053a0.05 0.05 0 0 0 0.022 0.022C0.113 0.475 0.127 0.475 0.155 0.475"
                  stroke="#000"
                  stroke-width="0.05"
                  stroke-linecap="round"
                  stroke-linejoin="round"
                />
              </svg>