<svg width="120" height="26" viewBox="0 0 120 26" fill="none" xmlns="http://www.w3.org/2000/svg">
  <path opacity=".6" d="M0 2a2 2 0 0 1 2-2h12a2 2 0 0 1 2 2v12a2 2 0 0 1-2 2H2a2 2 0 0 1-2-2z" fill="#9DC4F8"/>
  <path d="M6 6a2 2 0 0 1 2-2h12a2 2 0 0 1 2 2v12a2 2 0 0 1-2 2H8a2 2 0 0 1-2-2z" fill="#3662E3"/>
  <path d="M10.293 14.707a1 1 0 0 0 1.414 0L13 13.414V25a1 1 0 1 0 2 0V13.414l1.293 1.293a1 1 0 0 0 1.414-1.414l-3-3a1 1 0 0 0-1.414 0l-3 3a1 1 0 0 0 0 1.414" fill="#C2DAF9"/>
  <path d="M37.22 8.318V18.5h-2.153V8.318zM38.461 18.5v-7.636h2.019v1.347h.09q.238-.67.795-1.059.556-.388 1.332-.388.786 0 1.338.393.552.387.735 1.054h.08q.233-.656.845-1.05.617-.396 1.457-.397 1.068 0 1.735.681.67.676.671 1.92V18.5h-2.113v-4.718q0-.636-.338-.955a1.2 1.2 0 0 0-.845-.318q-.577 0-.9.368-.323.363-.323.96V18.5h-2.053v-4.763q0-.562-.324-.895-.318-.333-.84-.333-.352 0-.636.18-.279.173-.443.491-.164.314-.164.736V18.5zm14.458.144q-.732 0-1.303-.253a2.1 2.1 0 0 1-.905-.761q-.328-.507-.328-1.263 0-.636.234-1.069a1.9 1.9 0 0 1 .636-.696q.403-.263.915-.398a7 7 0 0 1 1.084-.188q.666-.07 1.073-.13.408-.065.592-.189a.42.42 0 0 0 .184-.367v-.03q0-.473-.298-.731-.294-.26-.835-.259-.573 0-.91.254a1.17 1.17 0 0 0-.448.626l-1.959-.159q.15-.696.587-1.203a2.8 2.8 0 0 1 1.129-.785q.695-.279 1.61-.279.636 0 1.219.15.586.149 1.039.462.457.313.72.805.264.487.264 1.168V18.5H55.21v-1.059h-.06q-.183.359-.491.631-.309.27-.741.423-.433.15-1 .15m.606-1.461q.468 0 .825-.184.358-.189.562-.508.204-.318.204-.72v-.81a1.1 1.1 0 0 1-.273.118 5 5 0 0 1-.383.095q-.214.04-.428.075l-.388.054a2.6 2.6 0 0 0-.65.174 1.04 1.04 0 0 0-.433.323.8.8 0 0 0-.155.498q0 .432.314.66.318.225.805.225m8.287 4.34q-1.029 0-1.764-.284-.732-.278-1.164-.76a2.34 2.34 0 0 1-.562-1.084l1.96-.264q.088.229.283.428.194.2.512.318.323.124.785.124.69 0 1.139-.338.452-.333.452-1.118v-1.397h-.09a2 2 0 0 1-.417.601 2.1 2.1 0 0 1-.716.463q-.438.179-1.044.179a3.14 3.14 0 0 1-1.566-.398q-.7-.403-1.119-1.228-.412-.83-.412-2.098 0-1.298.422-2.168t1.124-1.302q.705-.433 1.546-.433.642 0 1.074.219.432.214.696.537.268.318.413.626h.08v-1.282h2.102v7.71q0 .975-.477 1.631-.478.657-1.323.985-.84.333-1.934.333m.045-4.723q.513 0 .865-.254a1.6 1.6 0 0 0 .547-.736q.195-.482.194-1.153 0-.67-.189-1.163a1.7 1.7 0 0 0-.547-.771 1.4 1.4 0 0 0-.87-.273q-.522 0-.88.283a1.7 1.7 0 0 0-.542.775 3.3 3.3 0 0 0-.184 1.149q0 .66.184 1.143.19.479.542.741.358.258.88.259m8.365 1.85q-1.179 0-2.029-.478a3.27 3.27 0 0 1-1.302-1.362q-.458-.885-.458-2.093 0-1.178.458-2.069a3.4 3.4 0 0 1 1.287-1.387q.835-.497 1.959-.497.756 0 1.407.244.657.24 1.143.72.493.482.766 1.214.273.726.273 1.7v.582h-6.448V13.91h4.455q0-.457-.199-.81a1.4 1.4 0 0 0-.552-.552 1.6 1.6 0 0 0-.81-.204q-.483 0-.855.224a1.57 1.57 0 0 0-.577.591 1.7 1.7 0 0 0-.214.82v1.249q0 .567.209.98.213.411.602.636.387.223.92.223.352 0 .646-.1.293-.099.502-.297.209-.2.318-.488l1.959.13q-.15.705-.612 1.233-.458.522-1.183.815-.72.288-1.665.288M80.947 8.317H83.1v6.612q0 1.114-.532 1.95a3.56 3.56 0 0 1-1.476 1.302q-.949.462-2.213.462-1.268 0-2.217-.462a3.56 3.56 0 0 1-1.477-1.303q-.527-.835-.527-1.949V8.318h2.153v6.428q0 .582.254 1.034.258.454.725.711.468.26 1.09.259.626 0 1.088-.259.468-.258.72-.71.26-.453.26-1.035zm3.394 13.046v-10.5h2.089v1.282h.094q.14-.308.403-.626.268-.323.696-.537.432-.219 1.074-.219.834 0 1.54.438.707.432 1.13 1.307.422.87.422 2.183 0 1.277-.413 2.157-.408.875-1.113 1.328a2.86 2.86 0 0 1-1.571.447q-.617 0-1.05-.203a2.2 2.2 0 0 1-.7-.513 2.6 2.6 0 0 1-.418-.631h-.065v4.087zm2.074-6.682q0 .681.189 1.188t.546.79q.36.279.87.279.517 0 .876-.284.357-.288.541-.795.19-.512.19-1.178 0-.662-.185-1.164a1.73 1.73 0 0 0-.542-.785q-.357-.283-.88-.283-.517 0-.874.273-.353.273-.542.776-.19.502-.19 1.183m8.414-6.364V18.5H92.71V8.318zm4.657 10.331q-1.159 0-2.004-.492a3.37 3.37 0 0 1-1.297-1.382q-.458-.89-.458-2.063 0-1.185.457-2.068a3.33 3.33 0 0 1 1.298-1.383q.845-.497 2.004-.497 1.158 0 1.998.497.846.493 1.303 1.383.457.885.457 2.068 0 1.173-.457 2.063a3.36 3.36 0 0 1-1.303 1.382q-.84.492-1.998.492m.01-1.64q.526 0 .88-.299.353-.303.531-.825.184-.522.184-1.188t-.184-1.188a1.85 1.85 0 0 0-.531-.826q-.355-.303-.88-.303-.532 0-.895.303-.359.304-.542.825-.18.523-.18 1.189t.18 1.188q.183.522.542.825.363.3.895.299m6.813 1.635q-.731 0-1.303-.253a2.1 2.1 0 0 1-.905-.761q-.328-.507-.328-1.263 0-.636.234-1.069t.636-.696q.404-.263.915-.398.517-.134 1.084-.188.666-.07 1.074-.13.408-.065.591-.189a.41.41 0 0 0 .184-.367v-.03q0-.473-.298-.731-.294-.26-.835-.259-.572 0-.91.254a1.16 1.16 0 0 0-.447.626l-1.959-.159q.149-.696.586-1.203a2.8 2.8 0 0 1 1.129-.785q.696-.279 1.611-.279.636 0 1.218.15.586.149 1.039.462.457.313.721.805.263.487.263 1.168V18.5H108.6v-1.059h-.06q-.185.359-.492.631-.309.27-.741.423-.432.15-.999.15m.606-1.461q.468 0 .826-.184.358-.189.561-.508.204-.318.204-.72v-.81a1.1 1.1 0 0 1-.273.118q-.169.05-.383.095-.214.04-.428.075l-.387.054a2.6 2.6 0 0 0-.652.174q-.277.12-.432.323a.8.8 0 0 0-.154.498q0 .432.313.66.318.225.805.225m7.661 1.441q-.87 0-1.576-.447-.7-.453-1.113-1.328-.408-.879-.408-2.157 0-1.313.423-2.183.422-.875 1.123-1.307a2.9 2.9 0 0 1 1.546-.438q.642 0 1.069.219.434.214.696.537.269.318.408.626h.065V8.318h2.112V18.5h-2.088v-1.223h-.089q-.15.318-.423.631a2.1 2.1 0 0 1-.701.512q-.428.204-1.044.204m.671-1.685q.512 0 .866-.279.357-.282.546-.79.195-.507.194-1.188 0-.682-.189-1.183-.189-.503-.547-.776a1.4 1.4 0 0 0-.87-.273q-.522 0-.88.283t-.541.785a3.4 3.4 0 0 0-.184 1.164q0 .666.184 1.178.189.507.541.796.358.283.88.283" fill="#121826"/>
</svg>
