<svg width="32" height="32" viewBox="0 0 32 32" fill="none" xmlns="http://www.w3.org/2000/svg"><path d="m15.057 11.057-5.333 5.334a1.333 1.333 0 0 0 1.885 1.885l3.057-3.057v11.448h2.667V15.219l3.057 3.057a1.333 1.333 0 1 0 1.886-1.885l-5.334-5.334a1.33 1.33 0 0 0-1.885 0" fill="#3662E3"/><path d="M2.667 9.333v13.334a4.004 4.004 0 0 0 4 4h8V15.219l-3.058 3.057a1.333 1.333 0 0 1-1.885-1.885l5.333-5.334a1.33 1.33 0 0 1 1.886 0l5.333 5.334a1.333 1.333 0 0 1-1.886 1.885l-3.057-3.057v11.448h8a4.004 4.004 0 0 0 4-4V9.333a4.005 4.005 0 0 0-4-4H6.667a4.004 4.004 0 0 0-4 4" fill="#9DC4F8"/></svg>